<mxfile host="app.diagrams.net" agent="Mozilla/5.0 (Windows NT 10.0; Win64; x64; rv:130.0) Gecko/20100101 Firefox/130.0" version="24.7.16">
  <diagram name="PÃ¡gina-1" id="Qangxu4KOl9QELPH4HGG">
    <mxGraphModel dx="1114" dy="602" grid="1" gridSize="10" guides="1" tooltips="1" connect="1" arrows="1" fold="1" page="1" pageScale="1" pageWidth="827" pageHeight="1169" math="0" shadow="0">
      <root>
        <mxCell id="0" />
        <mxCell id="1" parent="0" />
        <mxCell id="eu6xORxxn_r6Ddj-s_3J-1" value="" style="swimlane;startSize=0;" vertex="1" parent="1">
          <mxGeometry x="120" y="20" width="400" height="540" as="geometry" />
        </mxCell>
        <mxCell id="eu6xORxxn_r6Ddj-s_3J-3" value="Crear Cuenta" style="ellipse;whiteSpace=wrap;html=1;" vertex="1" parent="eu6xORxxn_r6Ddj-s_3J-1">
          <mxGeometry x="40" y="30" width="140" height="50" as="geometry" />
        </mxCell>
        <mxCell id="eu6xORxxn_r6Ddj-s_3J-4" value="Realizar Retiro" style="ellipse;whiteSpace=wrap;html=1;" vertex="1" parent="eu6xORxxn_r6Ddj-s_3J-1">
          <mxGeometry x="200" y="470" width="140" height="50" as="geometry" />
        </mxCell>
        <mxCell id="eu6xORxxn_r6Ddj-s_3J-5" value="Realizar Deposito" style="ellipse;whiteSpace=wrap;html=1;" vertex="1" parent="eu6xORxxn_r6Ddj-s_3J-1">
          <mxGeometry x="40" y="470" width="140" height="50" as="geometry" />
        </mxCell>
        <mxCell id="eu6xORxxn_r6Ddj-s_3J-13" value="Modificar Cuenta" style="ellipse;whiteSpace=wrap;html=1;" vertex="1" parent="eu6xORxxn_r6Ddj-s_3J-1">
          <mxGeometry x="40" y="95" width="140" height="50" as="geometry" />
        </mxCell>
        <mxCell id="eu6xORxxn_r6Ddj-s_3J-14" value="Eliminar Cuenta" style="ellipse;whiteSpace=wrap;html=1;" vertex="1" parent="eu6xORxxn_r6Ddj-s_3J-1">
          <mxGeometry x="40" y="155" width="140" height="50" as="geometry" />
        </mxCell>
        <mxCell id="eu6xORxxn_r6Ddj-s_3J-15" value="Consultar Cuenta" style="ellipse;whiteSpace=wrap;html=1;" vertex="1" parent="eu6xORxxn_r6Ddj-s_3J-1">
          <mxGeometry x="40" y="220" width="140" height="50" as="geometry" />
        </mxCell>
        <mxCell id="eu6xORxxn_r6Ddj-s_3J-21" value="Crear Cliente" style="ellipse;whiteSpace=wrap;html=1;" vertex="1" parent="eu6xORxxn_r6Ddj-s_3J-1">
          <mxGeometry x="250" y="170" width="140" height="50" as="geometry" />
        </mxCell>
        <mxCell id="eu6xORxxn_r6Ddj-s_3J-22" value="Borrar Cliente" style="ellipse;whiteSpace=wrap;html=1;" vertex="1" parent="eu6xORxxn_r6Ddj-s_3J-1">
          <mxGeometry x="250" y="240" width="140" height="50" as="geometry" />
        </mxCell>
        <mxCell id="eu6xORxxn_r6Ddj-s_3J-23" value="Consulta Cliente" style="ellipse;whiteSpace=wrap;html=1;" vertex="1" parent="eu6xORxxn_r6Ddj-s_3J-1">
          <mxGeometry x="250" y="310" width="140" height="50" as="geometry" />
        </mxCell>
        <mxCell id="eu6xORxxn_r6Ddj-s_3J-24" value="Actualizar Cliente" style="ellipse;whiteSpace=wrap;html=1;" vertex="1" parent="eu6xORxxn_r6Ddj-s_3J-1">
          <mxGeometry x="250" y="380" width="140" height="50" as="geometry" />
        </mxCell>
        <mxCell id="eu6xORxxn_r6Ddj-s_3J-2" value="Cliente" style="shape=umlActor;verticalLabelPosition=bottom;verticalAlign=top;html=1;outlineConnect=0;" vertex="1" parent="1">
          <mxGeometry x="20" y="230" width="30" height="60" as="geometry" />
        </mxCell>
        <mxCell id="eu6xORxxn_r6Ddj-s_3J-10" value="" style="endArrow=none;html=1;rounded=0;entryX=0;entryY=0.5;entryDx=0;entryDy=0;exitX=0.5;exitY=0.5;exitDx=0;exitDy=0;exitPerimeter=0;" edge="1" parent="1" source="eu6xORxxn_r6Ddj-s_3J-2" target="eu6xORxxn_r6Ddj-s_3J-3">
          <mxGeometry relative="1" as="geometry">
            <mxPoint x="330" y="310" as="sourcePoint" />
            <mxPoint x="490" y="310" as="targetPoint" />
          </mxGeometry>
        </mxCell>
        <mxCell id="eu6xORxxn_r6Ddj-s_3J-11" value="" style="endArrow=none;html=1;rounded=0;entryX=0;entryY=0.5;entryDx=0;entryDy=0;exitX=0.5;exitY=0.5;exitDx=0;exitDy=0;exitPerimeter=0;" edge="1" parent="1" source="eu6xORxxn_r6Ddj-s_3J-2" target="eu6xORxxn_r6Ddj-s_3J-4">
          <mxGeometry relative="1" as="geometry">
            <mxPoint x="150" y="240" as="sourcePoint" />
            <mxPoint x="380" y="105" as="targetPoint" />
          </mxGeometry>
        </mxCell>
        <mxCell id="eu6xORxxn_r6Ddj-s_3J-12" value="" style="endArrow=none;html=1;rounded=0;entryX=0;entryY=0.5;entryDx=0;entryDy=0;exitX=0.5;exitY=0.5;exitDx=0;exitDy=0;exitPerimeter=0;" edge="1" parent="1" source="eu6xORxxn_r6Ddj-s_3J-2" target="eu6xORxxn_r6Ddj-s_3J-5">
          <mxGeometry relative="1" as="geometry">
            <mxPoint x="170" y="260" as="sourcePoint" />
            <mxPoint x="390" y="115" as="targetPoint" />
          </mxGeometry>
        </mxCell>
        <mxCell id="eu6xORxxn_r6Ddj-s_3J-17" value="" style="endArrow=none;html=1;rounded=0;entryX=0;entryY=0.5;entryDx=0;entryDy=0;exitX=0.5;exitY=0.5;exitDx=0;exitDy=0;exitPerimeter=0;" edge="1" parent="1" source="eu6xORxxn_r6Ddj-s_3J-2" target="eu6xORxxn_r6Ddj-s_3J-13">
          <mxGeometry relative="1" as="geometry">
            <mxPoint x="45" y="270" as="sourcePoint" />
            <mxPoint x="170" y="85" as="targetPoint" />
          </mxGeometry>
        </mxCell>
        <mxCell id="eu6xORxxn_r6Ddj-s_3J-18" value="" style="endArrow=none;html=1;rounded=0;entryX=0;entryY=0.5;entryDx=0;entryDy=0;exitX=0.5;exitY=0.5;exitDx=0;exitDy=0;exitPerimeter=0;" edge="1" parent="1" source="eu6xORxxn_r6Ddj-s_3J-2" target="eu6xORxxn_r6Ddj-s_3J-14">
          <mxGeometry relative="1" as="geometry">
            <mxPoint x="55" y="280" as="sourcePoint" />
            <mxPoint x="180" y="95" as="targetPoint" />
          </mxGeometry>
        </mxCell>
        <mxCell id="eu6xORxxn_r6Ddj-s_3J-19" value="" style="endArrow=none;html=1;rounded=0;entryX=0;entryY=0.5;entryDx=0;entryDy=0;" edge="1" parent="1" source="eu6xORxxn_r6Ddj-s_3J-2" target="eu6xORxxn_r6Ddj-s_3J-15">
          <mxGeometry relative="1" as="geometry">
            <mxPoint x="65" y="290" as="sourcePoint" />
            <mxPoint x="190" y="105" as="targetPoint" />
          </mxGeometry>
        </mxCell>
        <mxCell id="eu6xORxxn_r6Ddj-s_3J-20" value="Gestor" style="shape=umlActor;verticalLabelPosition=bottom;verticalAlign=top;html=1;outlineConnect=0;" vertex="1" parent="1">
          <mxGeometry x="630" y="230" width="30" height="60" as="geometry" />
        </mxCell>
        <mxCell id="eu6xORxxn_r6Ddj-s_3J-25" value="" style="endArrow=none;html=1;rounded=0;entryX=1;entryY=0.5;entryDx=0;entryDy=0;exitX=0.5;exitY=0.5;exitDx=0;exitDy=0;exitPerimeter=0;" edge="1" parent="1" source="eu6xORxxn_r6Ddj-s_3J-20" target="eu6xORxxn_r6Ddj-s_3J-21">
          <mxGeometry relative="1" as="geometry">
            <mxPoint x="45" y="270" as="sourcePoint" />
            <mxPoint x="170" y="85" as="targetPoint" />
          </mxGeometry>
        </mxCell>
        <mxCell id="eu6xORxxn_r6Ddj-s_3J-26" value="" style="endArrow=none;html=1;rounded=0;entryX=1;entryY=0.5;entryDx=0;entryDy=0;exitX=0.5;exitY=0.5;exitDx=0;exitDy=0;exitPerimeter=0;" edge="1" parent="1" source="eu6xORxxn_r6Ddj-s_3J-20" target="eu6xORxxn_r6Ddj-s_3J-22">
          <mxGeometry relative="1" as="geometry">
            <mxPoint x="655" y="270" as="sourcePoint" />
            <mxPoint x="520" y="225" as="targetPoint" />
          </mxGeometry>
        </mxCell>
        <mxCell id="eu6xORxxn_r6Ddj-s_3J-27" value="" style="endArrow=none;html=1;rounded=0;entryX=1;entryY=0.5;entryDx=0;entryDy=0;exitX=0.5;exitY=0.5;exitDx=0;exitDy=0;exitPerimeter=0;" edge="1" parent="1" source="eu6xORxxn_r6Ddj-s_3J-20" target="eu6xORxxn_r6Ddj-s_3J-23">
          <mxGeometry relative="1" as="geometry">
            <mxPoint x="665" y="280" as="sourcePoint" />
            <mxPoint x="530" y="235" as="targetPoint" />
          </mxGeometry>
        </mxCell>
        <mxCell id="eu6xORxxn_r6Ddj-s_3J-28" value="" style="endArrow=none;html=1;rounded=0;entryX=1;entryY=0.5;entryDx=0;entryDy=0;exitX=0.5;exitY=0.5;exitDx=0;exitDy=0;exitPerimeter=0;" edge="1" parent="1" source="eu6xORxxn_r6Ddj-s_3J-20" target="eu6xORxxn_r6Ddj-s_3J-24">
          <mxGeometry relative="1" as="geometry">
            <mxPoint x="640" y="270" as="sourcePoint" />
            <mxPoint x="540" y="245" as="targetPoint" />
          </mxGeometry>
        </mxCell>
      </root>
    </mxGraphModel>
  </diagram>
</mxfile>
